<?xml version="1.0" encoding="UTF-8" standalone="no"?>
<svg
   xmlns:dc="http://purl.org/dc/elements/1.1/"
   xmlns:cc="http://creativecommons.org/ns#"
   xmlns:rdf="http://www.w3.org/1999/02/22-rdf-syntax-ns#"
   xmlns:svg="http://www.w3.org/2000/svg"
   xmlns="http://www.w3.org/2000/svg"
   height="512px"
   width="512px"
   xml:space="preserve"
   style="enable-background:new 0 0 512 512;"
   viewBox="0 0 512 512"
   y="0px"
   x="0px"
   id="Capa_1"
   version="1.1"><metadata
   id="metadata67"><rdf:RDF><cc:Work
       rdf:about=""><dc:format>image/svg+xml</dc:format><dc:type
         rdf:resource="http://purl.org/dc/dcmitype/StillImage" /><dc:title></dc:title></cc:Work></rdf:RDF></metadata><defs
   id="defs65">
	

		
	</defs>
<g
   id="g6">
	<g
   id="g4">
		<path
   id="path2"
   fill="#FFFFFF"
   d="M263.07,236.665c-1.86-1.86-4.44-2.93-7.07-2.93c-2.63,0-5.21,1.07-7.07,2.93s-2.93,4.44-2.93,7.07    c0.001,2.63,1.07,5.21,2.93,7.07s4.44,2.93,7.07,2.93c2.63,0,5.21-1.07,7.07-2.93s2.93-4.44,2.93-7.07    S264.93,238.525,263.07,236.665z" />
	</g>
</g>

<g
   id="g18">
	<g
   id="g16">
		<path
   id="path14"
   fill="#FFFFFF"
   d="M340.311,354.204l-15.474-8.934c-4.782-2.76-10.898-1.123-13.66,3.66c-2.762,4.783-1.123,10.899,3.66,13.66l15.474,8.934    c1.575,0.909,3.294,1.341,4.991,1.341c3.456,0,6.817-1.793,8.669-5.001C346.733,363.081,345.094,356.965,340.311,354.204z" />
	</g>
</g>
<g
   id="g24">
	<g
   id="g22">
		<path
   id="path20"
   fill="#FFFFFF"
   d="M200.824,348.931c-2.762-4.783-8.877-6.422-13.66-3.66l-15.474,8.934c-4.783,2.761-6.422,8.877-3.66,13.66    c1.852,3.207,5.213,5.001,8.669,5.001c1.696,0,3.416-0.432,4.991-1.341l15.474-8.934    C201.946,359.83,203.585,353.714,200.824,348.931z" />
	</g>
</g>
<path
   style="fill:#ffffff;stroke-width:8;stroke-miterlimit:4;stroke-dasharray:none"
   id="path26"
   d="m 511.657,456.735 -12.343,-46.064 c -1.43,-5.334 -6.909,-8.501 -12.248,-7.071 -5.334,1.429 -8.5,6.913 -7.071,12.248 l 6.048,22.572 -83.277,-48.081 V 238.112 c 0,-3.573 -1.906,-6.874 -5,-8.66 L 266,153.377 V 61.018 l 16.777,16.778 c 1.953,1.953 4.512,2.929 7.071,2.929 2.559,0 5.119,-0.976 7.071,-2.929 3.905,-3.905 3.905,-10.237 0,-14.143 L 263.197,29.931 c -3.905,-3.905 -10.237,-3.905 -14.143,0 l -33.722,33.722 c -3.905,3.905 -3.905,10.237 0,14.143 3.905,3.906 10.237,3.905 14.143,0 l 16.523,-16.524 v 92.105 l -131.767,76.075 c -3.094,1.786 -5,5.087 -5,8.66 v 40.837 c 0,5.523 4.477,10 10,10 5.523,0 10,-4.477 10,-10 v -23.51 l 106.702,61.673 -11.336,6.545 c -4.783,2.761 -6.422,8.877 -3.66,13.66 1.852,3.208 5.213,5.001 8.669,5.001 1.696,0 3.416,-0.432 4.991,-1.341 l 11.401,-6.582 v 123.284 l -106.701,-61.603 0.153,-0.088 c 0.327,-0.189 0.636,-0.396 0.933,-0.615 l 3.868,-2.233 c 4.783,-2.761 6.422,-8.877 3.66,-13.66 -2.762,-4.783 -8.877,-6.422 -13.66,-3.66 l -5.02,2.898 V 272.001 c 0,-5.523 -4.477,-10 -10,-10 -5.523,0 -10,4.477 -10,10 v 118.34 l -83.277,48.081 6.048,-22.572 c 1.43,-5.335 -1.736,-10.818 -7.071,-12.248 -5.335,-1.429 -10.819,1.736 -12.248,7.071 l -12.34,46.063 c -1.43,5.335 1.736,10.818 7.071,12.248 l 46.064,12.343 c 0.867,0.232 1.738,0.343 2.595,0.343 4.415,0 8.456,-2.947 9.653,-7.414 1.43,-5.335 -1.736,-10.818 -7.071,-12.248 L 35.736,455.867 119.299,407.621 251,483.658 c 1.547,0.893 3.273,1.34 5,1.34 1.727,0 3.453,-0.447 5,-1.34 l 131.701,-76.037 83.563,48.246 -22.919,6.141 c -5.334,1.429 -8.5,6.913 -7.071,12.248 1.197,4.468 5.237,7.414 9.653,7.414 0.856,0 1.728,-0.111 2.595,-0.343 l 46.064,-12.343 c 5.334,-1.431 8.5,-6.914 7.071,-12.249 z M 256.001,276.962 c -5.523,0 -10,4.477 -10,10 V 299.83 L 139.229,238.117 246.001,176.472 v 25.4 c 0,5.523 4.477,10 10,10 5.523,0 10,-4.477 10,-10 v -25.4 l 106.772,61.645 -106.772,61.713 v -12.868 c 0,-5.523 -4.477,-10 -10,-10 z m 126.767,101.753 -5.02,-2.898 c -4.784,-2.76 -10.898,-1.122 -13.66,3.66 -2.762,4.783 -1.123,10.899 3.66,13.66 l 3.868,2.233 c 0.297,0.219 0.606,0.426 0.933,0.615 l 0.153,0.088 -106.701,61.605 V 334.394 l 11.401,6.582 c 1.575,0.909 3.294,1.341 4.991,1.341 3.456,0 6.817,-1.793 8.669,-5.001 2.762,-4.783 1.123,-10.899 -3.66,-13.66 l -11.336,-6.545 106.702,-61.673 z" />
<g
   id="g32">
</g>
<g
   id="g34">
</g>
<g
   id="g36">
</g>
<g
   id="g38">
</g>
<g
   id="g40">
</g>
<g
   id="g42">
</g>
<g
   id="g44">
</g>
<g
   id="g46">
</g>
<g
   id="g48">
</g>
<g
   id="g50">
</g>
<g
   id="g52">
</g>
<g
   id="g54">
</g>
<g
   id="g56">
</g>
<g
   id="g58">
</g>
<g
   id="g60">
</g>
</svg>