<?xml version="1.0" encoding="UTF-8" standalone="no"?>
<!-- Created with Inkscape (http://www.inkscape.org/) -->

<svg
   xmlns:dc="http://purl.org/dc/elements/1.1/"
   xmlns:cc="http://creativecommons.org/ns#"
   xmlns:rdf="http://www.w3.org/1999/02/22-rdf-syntax-ns#"
   xmlns:svg="http://www.w3.org/2000/svg"
   xmlns="http://www.w3.org/2000/svg"
   xmlns:sodipodi="http://sodipodi.sourceforge.net/DTD/sodipodi-0.dtd"
   xmlns:inkscape="http://www.inkscape.org/namespaces/inkscape"
   version="1.1"
   width="979.84998"
   height="478.5"
   id="svg2"
   inkscape:version="0.48.4 r9939"
   sodipodi:docname="gazebo_horz_neg.svg">
  <sodipodi:namedview
     pagecolor="#ffffff"
     bordercolor="#666666"
     borderopacity="1"
     objecttolerance="10"
     gridtolerance="10"
     guidetolerance="10"
     inkscape:pageopacity="0"
     inkscape:pageshadow="2"
     inkscape:window-width="1664"
     inkscape:window-height="920"
     id="namedview3462"
     showgrid="false"
     inkscape:zoom="0.74470588"
     inkscape:cx="525.78645"
     inkscape:cy="15.753716"
     inkscape:window-x="299"
     inkscape:window-y="126"
     inkscape:window-maximized="0"
     inkscape:current-layer="svg2" />
  <defs
     id="defs4">
    <clipPath
       id="clipPath3020">
      <path
         d="m 0,0 5286.97,0 0,1276 L 0,1276 0,0 z"
         id="path3022"
         inkscape:connector-curvature="0" />
    </clipPath>
  </defs>
  <metadata
     id="metadata7">
    <rdf:RDF>
      <cc:Work
         rdf:about="">
        <dc:format>image/svg+xml</dc:format>
        <dc:type
           rdf:resource="http://purl.org/dc/dcmitype/StillImage" />
        <dc:title />
      </cc:Work>
    </rdf:RDF>
  </metadata>
  <path
     style="fill:#000000;stroke:#000000;stroke-width:1px;stroke-linecap:butt;stroke-linejoin:miter;stroke-opacity:1;fill-opacity:1"
     d="m 163.48736,206.58057 1.00711,67.97986 60.76224,37.26303 0.50356,-34.07386 33.2346,-19.80647 z"
     id="path3924"
     inkscape:connector-curvature="0" />
  <path
     inkscape:connector-curvature="0"
     style="fill:#ffffff;fill-opacity:1;fill-rule:nonzero;stroke:none"
     id="path3024"
     d="m 222.38486,244.55712 2.02975,1.25975 c 0.72813,0.45075 1.55275,0.67725 2.38037,0.67725 0.82576,0 1.65338,-0.2265 2.38338,-0.68062 l 2.03225,-1.26763 20.60537,12.76275 -27.51212,17.13138 c -1.32725,0.82362 -2.13288,2.27775 -2.1265,3.84512 l 0.0805,28.07713 -49.7045,-30.86425 49.8315,-30.94088 z m -54.03223,-33.55225 45.47998,28.24225 -45.47998,28.23876 0,-56.48101 z m 125.63548,28.15038 c -0.004,-1.63275 -0.8925,-3.14163 -2.32625,-3.93313 -1.43,-0.79437 -3.17875,-0.7465 -4.5675,0.11775 l -26.73337,16.64738 -20.60313,-12.75875 52.209,-32.51563 c 1.325,-0.82425 2.13125,-2.27387 2.13125,-3.83637 -0.004,-1.55763 -0.8125,-3.00838 -2.1375,-3.82813 l -62.79113,-38.88212 c -1.45749,-0.90375 -3.29824,-0.90125 -4.75487,0.001 l -62.79292,38.99413 c -1.3252,0.82024 -2.13233,2.27049 -2.13233,3.8315 0,0.40574 0,72.09862 0,72.50487 0,1.56062 0.80713,3.01025 2.13233,3.8345 l 62.79292,38.98977 c 0.0307,0.019 0.0625,0.0303 0.0929,0.0478 0.0346,0.0186 0.0634,0.0449 0.0991,0.0659 0.0708,0.0376 0.1455,0.0664 0.21962,0.10254 0.0733,0.0376 0.145,0.0737 0.22226,0.10645 0.11712,0.0474 0.23674,0.0889 0.35637,0.125 0.0709,0.0249 0.13925,0.0513 0.2115,0.0688 0.13425,0.041 0.27187,0.0625 0.40863,0.0884 0.0571,0.0117 0.11725,0.0254 0.17574,0.0288 0.19688,0.0303 0.3955,0.0439 0.59238,0.0439 l 0,0 c 0,0 10e-4,0 0.002,0 0.40925,0 0.82188,-0.0576 1.21825,-0.16748 0.004,-0.004 0.006,-0.004 0.006,-0.004 0.15387,-0.041 0.30525,-0.10254 0.45412,-0.16113 0.0449,-0.0186 0.0928,-0.0298 0.13675,-0.0474 0.12601,-0.0552 0.24263,-0.12891 0.36225,-0.19532 0.066,-0.0361 0.13576,-0.0649 0.20076,-0.10253 l 0.002,-0.003 c 0.003,0 0.003,0 0.003,0 l 0.12063,-0.0762 62.66537,-38.91018 c 1.33125,-0.82762 2.13625,-2.28175 2.13375,-3.84912 l -0.11,-36.32813" />
  <path
     inkscape:connector-curvature="0"
     style="fill:#231f20;fill-opacity:1;fill-rule:nonzero;stroke:none"
     id="path3026"
     d="m 231.20561,280.76812 0.0772,25.623 53.784,-33.398 -0.075,-25.71475 -53.78625,33.48975" />
  <path
     inkscape:connector-curvature="0"
     style="fill:#f58113;fill-opacity:1;fill-rule:nonzero;stroke:none"
     id="path3028"
     d="m 172.55336,202.99313 54.23975,33.67974 54.23925,-33.77937 -54.23438,-33.58475 -54.24462,33.68438" />
  <path
     inkscape:connector-curvature="0"
     style="fill:#ffffff;fill-opacity:1;fill-rule:nonzero;stroke:none"
     id="path3030"
     d="m 408.19061,242.22075 c -1.685,21.81875 -20.725,35.00975 -38.77875,35.00975 -21.9175,0 -39.375,-17.75 -39.375,-37.98738 0,-19.039 15.77125,-37.98537 39.27625,-37.98537 19.43875,0 31.835,13.39112 34.71375,20.82862 l -8.52875,0 c -4.165,-7.23975 -13.8875,-14.183 -26.08625,-14.183 -18.545,0 -32.035,15.07663 -32.035,31.44288 0,16.36175 13.49,31.24112 32.335,31.24112 15.56875,0 27.075,-11.50637 29.6525,-21.72362 l -40.96,0 0,-6.643 49.78625,0" />
  <path
     inkscape:connector-curvature="0"
     style="fill:#ffffff;fill-opacity:1;fill-rule:nonzero;stroke:none"
     id="path3032"
     d="m 450.02686,244.60112 28.465,0 -14.08375,-33.72075 -14.38125,33.72075 z m 10.215,-42.05175 8.2325,0 31.53625,73.392 -8.035,0 -10.605,-24.69337 -34.12,0 -10.71125,24.69337 -7.63875,0 31.34125,-73.392" />
  <path
     inkscape:connector-curvature="0"
     style="fill:#ffffff;fill-opacity:1;fill-rule:nonzero;stroke:none"
     id="path3034"
     d="m 524.92811,269.29487 36.1,-60.103 -35.00875,0 0,-6.6425 43.2375,0 0,6.6425 -36.00125,60.103 37.09375,0 0,6.6465 -45.42125,0 0,-6.6465" />
  <path
     inkscape:connector-curvature="0"
     style="fill:#ffffff;fill-opacity:1;fill-rule:nonzero;stroke:none"
     id="path3036"
     d="m 597.93561,202.54937 40.17,0 0,6.6425 -32.8275,0 0,26.38575 31.73625,0 0,6.64313 -31.73625,0 0,27.07412 32.8275,0 0,6.6465 -40.17,0 0,-73.392" />
  <path
     inkscape:connector-curvature="0"
     style="fill:#ffffff;fill-opacity:1;fill-rule:nonzero;stroke:none"
     id="path3038"
     d="m 676.79936,269.29487 10.3125,0 c 6.1525,0 9.92125,-0.29687 13.8825,-1.88225 4.5625,-1.88287 7.73875,-6.94 7.73875,-12.49562 0,-5.65388 -3.76875,-10.51363 -8.625,-12.39938 -3.475,-1.38825 -6.44875,-1.68512 -14.28625,-1.68512 l -9.0225,0 0,28.46237 z m 0,-35.10887 9.21875,0 c 5.75875,0 9.02875,-0.29688 12.60375,-2.08 3.4675,-1.78713 5.94625,-5.94725 5.94625,-10.3165 0,-3.371 -1.195,-5.7495 -3.0725,-8.03463 -2.87375,-3.27 -7.3425,-4.563 -14.87875,-4.563 l -9.8175,0 0,24.99413 z m -7.3425,-31.63663 18.445,0 c 23.10875,0 24.0025,16.5595 24.0025,19.537 0,8.63138 -5.45375,12.69288 -8.025,14.77638 7.32875,2.97362 12.1925,9.62063 12.1925,18.05425 0,7.0425 -3.27125,13.48775 -8.43125,16.9595 -6.25,3.6655 -11.1125,4.1635 -19.73875,4.06487 l -18.445,0 0,-73.392" />
  <path
     inkscape:connector-curvature="0"
     style="fill:#ffffff;fill-opacity:1;fill-rule:nonzero;stroke:none"
     id="path3040"
     d="m 781.48436,270.58737 c 16.95875,0 31.5375,-13.78762 31.5375,-31.24112 0,-17.16075 -14.18,-31.44288 -31.5375,-31.44288 -16.565,0 -31.44625,13.49063 -31.44625,31.73925 0,16.75775 14.38375,30.94475 31.44625,30.94475 z m 0,-69.32962 c 20.625,0 38.87625,16.36475 38.87625,37.98538 0,21.62112 -18.34625,37.98737 -38.87625,37.98737 -20.83,0 -38.7825,-16.96288 -38.7825,-37.58788 0,-23.11187 19.23875,-38.38487 38.7825,-38.38487" />
</svg>
