<?xml version="1.0" encoding="UTF-8" standalone="no"?>
<!-- Created with Inkscape (http://www.inkscape.org/) -->

<svg
   xmlns:dc="http://purl.org/dc/elements/1.1/"
   xmlns:cc="http://creativecommons.org/ns#"
   xmlns:rdf="http://www.w3.org/1999/02/22-rdf-syntax-ns#"
   xmlns:svg="http://www.w3.org/2000/svg"
   xmlns="http://www.w3.org/2000/svg"
   xmlns:sodipodi="http://sodipodi.sourceforge.net/DTD/sodipodi-0.dtd"
   xmlns:inkscape="http://www.inkscape.org/namespaces/inkscape"
   version="1.1"
   width="979.84998"
   height="478.5"
   id="svg2"
   inkscape:version="0.48.4 r9939"
   sodipodi:docname="gazebo_horz_pos.svg">
  <sodipodi:namedview
     pagecolor="#ffffff"
     bordercolor="#666666"
     borderopacity="1"
     objecttolerance="10"
     gridtolerance="10"
     guidetolerance="10"
     inkscape:pageopacity="0"
     inkscape:pageshadow="2"
     inkscape:window-width="1393"
     inkscape:window-height="1081"
     id="namedview3542"
     showgrid="false"
     inkscape:zoom="0.74470588"
     inkscape:cx="472.68004"
     inkscape:cy="83.902598"
     inkscape:window-x="1041"
     inkscape:window-y="140"
     inkscape:window-maximized="0"
     inkscape:current-layer="svg2" />
  <defs
     id="defs4">
    <clipPath
       id="clipPath3020">
      <path
         d="m 0,0 5286.97,0 0,1276 L 0,1276 0,0 z"
         id="path3022"
         inkscape:connector-curvature="0" />
    </clipPath>
    <clipPath
       id="clipPath3111">
      <path
         d="m 0,0 5286.98,0 0,1276 L 0,1276 0,0 z"
         id="path3113"
         inkscape:connector-curvature="0" />
    </clipPath>
  </defs>
  <metadata
     id="metadata7">
    <rdf:RDF>
      <cc:Work
         rdf:about="">
        <dc:format>image/svg+xml</dc:format>
        <dc:type
           rdf:resource="http://purl.org/dc/dcmitype/StillImage" />
        <dc:title />
      </cc:Work>
    </rdf:RDF>
  </metadata>
  <path
     style="fill:#ffffff;stroke:#000000;stroke-width:1px;stroke-linecap:butt;stroke-linejoin:miter;stroke-opacity:1;fill-opacity:1"
     d="m 164.74024,205.99021 1.89902,67.41531 59.81923,38.92997 0.94951,-34.65717 35.13192,-19.46498 z"
     id="path4004"
     inkscape:connector-curvature="0" />
  <g
     transform="translate(-170.935,-653.61217)"
     id="layer1">
    <g
       transform="matrix(1.25,0,0,-1.25,330.42374,972.61217)"
       id="g3103">
      <g
         transform="scale(0.1,0.1)"
         id="g3105">
        <g
           id="g3107">
          <g
             clip-path="url(#clipPath3111)"
             id="g3109">
            <path
               d="m 503.164,595.555 16.238,-10.078 c 5.825,-3.625 12.422,-5.422 19.043,-5.422 6.606,0 13.227,1.797 19.067,5.449 L 573.77,595.621 738.613,493.543 518.516,356.48 c -10.618,-6.589 -17.063,-18.222 -17.012,-30.761 L 502.148,101.102 104.512,348.016 503.164,595.555 z M 70.9062,863.949 434.746,638.031 70.9062,412.125 l 0,451.824 z M 1075.99,638.766 c -0.03,13.066 -7.14,25.117 -18.61,31.464 -11.44,6.336 -25.43,5.977 -36.54,-0.937 L 806.973,536.109 642.148,638.18 1059.82,898.297 c 10.6,6.601 17.05,18.203 17.05,30.691 -0.03,12.461 -6.5,24.067 -17.1,30.637 L 557.441,1270.67 c -11.66,7.23 -26.386,7.21 -38.039,-0.02 L 17.0586,958.719 C 6.45703,952.145 0,940.543 0,928.055 0,924.809 0,351.266 0,348.016 0,335.531 6.45703,323.934 17.0586,317.34 L 519.402,5.42188 c 0.246,-0.15235 0.5,-0.24219 0.743,-0.38282 0.277,-0.14844 0.507,-0.35937 0.793,-0.52734 0.566,-0.30078 1.164,-0.53125 1.757,-0.82031 0.586,-0.30079 1.16,-0.58985 1.778,-0.85157 0.937,-0.3789 1.894,-0.71093 2.851,-1 0.567,-0.19922 1.114,-0.41015 1.692,-0.55078 1.074,-0.328122 2.175,-0.499998 3.269,-0.707029 0.457,-0.09375 0.938,-0.203125 1.406,-0.230469 C 535.266,0.109375 536.855,0 538.43,0 l 0,0 c 0,0 0.008,0 0.015,0 3.274,0 6.575,0.460938 9.746,1.33984 0.032,0.03125 0.051,0.03125 0.051,0.03125 1.231,0.32813 2.442,0.82032 3.633,1.28907 0.359,0.14843 0.742,0.23828 1.094,0.3789 1.008,0.44141 1.941,1.03125 2.898,1.5625 0.528,0.28906 1.086,0.51953 1.606,0.82032 l 0.015,0.02734 c 0.024,0 0.024,0 0.024,0 L 558.477,6.05859 1059.8,317.34 c 10.65,6.621 17.09,18.254 17.07,30.793 l -0.88,290.633"
               id="path3115"
               style="fill:#231f20;fill-opacity:1;fill-rule:nonzero;stroke:none"
               inkscape:connector-curvature="0" />
            <path
               d="m 573.73,305.855 0.618,-204.984 430.272,267.184 -0.6,205.73 -430.29,-267.93"
               id="path3117"
               style="fill:#ffffff;fill-opacity:1;fill-rule:nonzero;stroke:none"
               inkscape:connector-curvature="0" />
            <path
               d="M 104.512,928.055 538.43,658.629 972.344,928.844 538.469,1197.53 104.512,928.055"
               id="path3119"
               style="fill:#f58113;fill-opacity:1;fill-rule:nonzero;stroke:none"
               inkscape:connector-curvature="0" />
            <path
               d="m 1989.61,614.242 c -13.48,-174.551 -165.8,-280.086 -310.23,-280.086 -175.34,0 -315,142.012 -315,303.887 0,152.336 126.17,303.895 314.21,303.895 155.51,0 254.68,-107.118 277.71,-166.622 l -68.23,0 c -33.32,57.911 -111.1,113.457 -208.69,113.457 -148.36,0 -256.28,-120.601 -256.28,-251.531 0,-130.898 107.92,-249.933 258.68,-249.933 124.55,0 216.6,92.05 237.22,173.773 l -327.68,0 0,53.16 398.29,0"
               id="path3121"
               style="fill:#231f20;fill-opacity:1;fill-rule:nonzero;stroke:none"
               inkscape:connector-curvature="0" />
            <path
               d="m 2324.3,595.199 227.72,0 -112.67,269.758 -115.05,-269.758 z m 81.72,336.418 65.86,0 252.29,-587.148 -64.28,0 -84.84,197.558 -272.96,0 -85.69,-197.558 -61.11,0 250.73,587.148"
               id="path3123"
               style="fill:#231f20;fill-opacity:1;fill-rule:nonzero;stroke:none"
               inkscape:connector-curvature="0" />
            <path
               d="m 2923.5,397.633 288.81,480.82 -280.08,0 0,53.164 345.92,0 0,-53.164 -288.03,-480.82 296.76,0 0,-53.164 -363.38,0 0,53.164"
               id="path3125"
               style="fill:#231f20;fill-opacity:1;fill-rule:nonzero;stroke:none"
               inkscape:connector-curvature="0" />
            <path
               d="m 3507.56,931.617 321.37,0 0,-53.164 -262.62,0 0,-211.062 253.89,0 0,-53.149 -253.89,0 0,-216.609 262.62,0 0,-53.164 -321.37,0 0,587.148"
               id="path3127"
               style="fill:#231f20;fill-opacity:1;fill-rule:nonzero;stroke:none"
               inkscape:connector-curvature="0" />
            <path
               d="m 4138.48,397.633 82.5,0 c 49.22,0 79.38,2.375 111.06,15.058 36.5,15.059 61.91,55.536 61.91,99.981 0,45.234 -30.16,84.109 -69,99.18 -27.8,11.125 -51.59,13.496 -114.28,13.496 l -72.19,0 0,-227.715 z m 0,280.887 73.75,0 c 46.08,0 72.23,2.375 100.82,16.64 27.76,14.301 47.58,47.578 47.58,82.512 0,26.98 -9.55,46.016 -24.57,64.297 -23.01,26.164 -58.75,36.484 -119.04,36.484 l -78.54,0 0,-199.933 z m -58.75,253.097 147.58,0 c 184.86,0 192.01,-132.48 192.01,-156.301 0,-69.05 -43.63,-101.558 -64.2,-118.211 58.63,-23.808 97.54,-76.964 97.54,-144.433 0,-56.336 -26.17,-107.902 -67.44,-135.672 -50,-29.336 -88.91,-33.32 -157.91,-32.531 l -147.58,0 0,587.148"
               id="path3129"
               style="fill:#231f20;fill-opacity:1;fill-rule:nonzero;stroke:none"
               inkscape:connector-curvature="0" />
            <path
               d="m 4975.96,387.309 c 135.67,0 252.31,110.304 252.31,249.933 0,137.266 -113.44,251.531 -252.31,251.531 -132.52,0 -251.56,-107.918 -251.56,-253.906 0,-134.078 115.06,-247.558 251.56,-247.558 z m 0,554.629 c 165,0 311.02,-130.918 311.02,-303.895 0,-172.969 -146.78,-303.887 -311.02,-303.887 -166.64,0 -310.25,135.711 -310.25,300.711 0,184.895 153.9,307.071 310.25,307.071"
               id="path3131"
               style="fill:#231f20;fill-opacity:1;fill-rule:nonzero;stroke:none"
               inkscape:connector-curvature="0" />
          </g>
        </g>
      </g>
    </g>
  </g>
</svg>
