<?xml version="1.0" encoding="UTF-8" standalone="no"?>
<!-- Created with Inkscape (http://www.inkscape.org/) -->

<svg
   xmlns:dc="http://purl.org/dc/elements/1.1/"
   xmlns:cc="http://creativecommons.org/ns#"
   xmlns:rdf="http://www.w3.org/1999/02/22-rdf-syntax-ns#"
   xmlns:svg="http://www.w3.org/2000/svg"
   xmlns="http://www.w3.org/2000/svg"
   xmlns:sodipodi="http://sodipodi.sourceforge.net/DTD/sodipodi-0.dtd"
   xmlns:inkscape="http://www.inkscape.org/namespaces/inkscape"
   width="300"
   height="300"
   id="svg6408"
   version="1.1"
   inkscape:version="0.48.4 r9939"
   sodipodi:docname="gazebo_icon_pos.svg"
   inkscape:export-filename="/home/nkoenig/Dropbox/gazebo/identity/svg/gazebo_icon_gray_16x16.png"
   inkscape:export-xdpi="4.8000002"
   inkscape:export-ydpi="4.8000002">
  <defs
     id="defs6410" />
  <sodipodi:namedview
     id="base"
     pagecolor="#7a7a7a"
     bordercolor="#666666"
     borderopacity="1.0"
     inkscape:pageopacity="1"
     inkscape:pageshadow="2"
     inkscape:zoom="1.979899"
     inkscape:cx="110.52173"
     inkscape:cy="178.84029"
     inkscape:document-units="px"
     inkscape:current-layer="layer1"
     showgrid="false"
     inkscape:window-width="1749"
     inkscape:window-height="1203"
     inkscape:window-x="2865"
     inkscape:window-y="127"
     inkscape:window-maximized="0" />
  <metadata
     id="metadata6413">
    <rdf:RDF>
      <cc:Work
         rdf:about="">
        <dc:format>image/svg+xml</dc:format>
        <dc:type
           rdf:resource="http://purl.org/dc/dcmitype/StillImage" />
        <dc:title></dc:title>
      </cc:Work>
    </rdf:RDF>
  </metadata>
  <g
     inkscape:label="Layer 1"
     inkscape:groupmode="layer"
     id="layer1"
     transform="translate(0,-752.36218)">
    <g
       transform="translate(-148.375,581.36346)"
       id="g3004">
      <path
         id="path3226"
         d="m 298.35937,175.95187 c -1.50009,9.4e-4 -2.9885,0.3975 -4.3125,1.21875 l -114.21875,70.90625 c -2.41015,1.49375 -3.875,4.1625 -3.875,7 l 0,131.84375 c 0,2.8425 1.46485,5.5 3.875,7 l 114.21875,70.90625 c 0.0546,0.0289 0.10013,0.0596 0.15625,0.0937 0.061,0.0348 0.1255,0.0863 0.1875,0.125 0.13187,0.0689 0.2735,0.0937 0.40625,0.15625 0.13525,0.0689 0.27,0.165 0.40625,0.21875 0.21288,0.0922 0.438,0.15087 0.65625,0.21875 0.12787,0.0434 0.24562,0.0898 0.375,0.125 0.24562,0.0674 0.4995,0.11238 0.75,0.15625 0.10687,0.0146 0.20512,0.0474 0.3125,0.0625 0.35738,0.0489 0.70263,0.0625 1.0625,0.0625 0.74649,0 1.49375,-0.1025 2.21875,-0.3125 l 0.0312,0 c 0.28087,-0.0776 0.54,-0.16838 0.8125,-0.28125 0.0813,-0.0297 0.16625,-0.06 0.25,-0.0937 0.22375,-0.0986 0.43625,-0.22175 0.65625,-0.34375 0.12,-0.0679 0.2575,-0.11863 0.375,-0.1875 l 0.21875,-0.15625 114,-70.75 c 2.4175,-1.505 3.885,-4.14875 3.875,-7 l -0.21875,-66.09375 c -0.01,-2.97625 -1.61375,-5.715 -4.21875,-7.15625 -2.6025,-1.445 -5.7825,-1.35375 -8.3125,0.21875 l -48.625,30.28125 -37.46875,-23.21875 94.96875,-59.125 c 2.41,-1.49875 3.8775,-4.13 3.875,-6.96875 -0.005,-2.8375 -1.49375,-5.475 -3.90625,-6.96875 L 302.70312,177.17062 c -1.32587,-0.82 -2.84366,-1.21969 -4.34375,-1.21875 z m -106.28125,93.6875 82.71875,51.375 -82.71875,51.34375 0,-102.71875 z m 114.3125,61 37.5,23.21875 -50.0625,31.15625 c -2.4145,1.5 -3.85301,4.1275 -3.84375,6.96875 l 0.125,51.09375 -90.375,-56.15625 90.625,-56.25 3.6875,2.28125 c 1.32662,0.82125 2.811,1.21875 4.3125,1.21875 1.50488,0 3.015,-0.38875 4.34375,-1.21875 l 3.6875,-2.3125 z m 97.84375,4.96875 0.125,46.78125 -97.8125,60.75 -0.15625,-46.625 97.84375,-60.90625 z"
         style="fill:#ffffff;fill-opacity:1;fill-rule:nonzero;stroke:none"
         inkscape:connector-curvature="0" />
      <path
         d="m 199.72163,255.06187 98.6465,61.2525 98.65375,-61.43125 -98.64212,-61.08125 -98.65813,61.26"
         id="path3230"
         style="fill:#ffffff;fill-opacity:1;fill-rule:nonzero;stroke:none"
         inkscape:connector-curvature="0" />
    </g>
  </g>
</svg>
