<?xml version="1.0" encoding="UTF-8" standalone="no"?>
<!-- Created with Inkscape (http://www.inkscape.org/) -->

<svg
   xmlns:dc="http://purl.org/dc/elements/1.1/"
   xmlns:cc="http://creativecommons.org/ns#"
   xmlns:rdf="http://www.w3.org/1999/02/22-rdf-syntax-ns#"
   xmlns:svg="http://www.w3.org/2000/svg"
   xmlns="http://www.w3.org/2000/svg"
   xmlns:sodipodi="http://sodipodi.sourceforge.net/DTD/sodipodi-0.dtd"
   xmlns:inkscape="http://www.inkscape.org/namespaces/inkscape"
   version="1.1"
   width="596.75"
   height="703.81"
   id="svg2"
   inkscape:version="0.48.4 r9939"
   sodipodi:docname="gazebo_vert_neg.svg">
  <sodipodi:namedview
     pagecolor="#ffffff"
     bordercolor="#666666"
     borderopacity="1"
     objecttolerance="10"
     gridtolerance="10"
     guidetolerance="10"
     inkscape:pageopacity="0"
     inkscape:pageshadow="2"
     inkscape:window-width="1258"
     inkscape:window-height="1113"
     id="namedview3927"
     showgrid="false"
     inkscape:zoom="0.67063554"
     inkscape:cx="351.06389"
     inkscape:cy="350.17767"
     inkscape:window-x="1004"
     inkscape:window-y="84"
     inkscape:window-maximized="0"
     inkscape:current-layer="svg2" />
  <defs
     id="defs4">
    <clipPath
       id="clipPath3020">
      <path
         d="m 0,0 5286.97,0 0,1276 L 0,1276 0,0 z"
         id="path3022"
         inkscape:connector-curvature="0" />
    </clipPath>
    <clipPath
       id="clipPath3111">
      <path
         d="m 0,0 5286.98,0 0,1276 L 0,1276 0,0 z"
         id="path3113"
         inkscape:connector-curvature="0" />
    </clipPath>
    <clipPath
       id="clipPath3222">
      <path
         d="m 0,0 1958.6,0 0,2815 L 0,2815 0,0 z"
         id="path3224"
         inkscape:connector-curvature="0" />
    </clipPath>
  </defs>
  <metadata
     id="metadata7">
    <rdf:RDF>
      <cc:Work
         rdf:about="">
        <dc:format>image/svg+xml</dc:format>
        <dc:type
           rdf:resource="http://purl.org/dc/dcmitype/StillImage" />
        <dc:title />
      </cc:Work>
    </rdf:RDF>
  </metadata>
  <path
     style="fill:#000000;stroke:#000000;stroke-width:1px;stroke-linecap:butt;stroke-linejoin:miter;stroke-opacity:1;fill-opacity:1"
     d="m 186.39036,260.9465 -0.74556,124.50876 111.08865,69.33722 2.98225,-61.8816 61.13604,-41.75144 z"
     id="path4647"
     inkscape:connector-curvature="0" />
  <g
     transform="translate(-126.45001,-348.58217)"
     id="layer1">
    <g
       transform="matrix(1.25,0,0,-1.25,302.41251,876.42467)"
       id="g3214">
      <g
         transform="scale(0.1,0.1)"
         id="g3216">
        <g
           id="g3218">
          <g
             clip-path="url(#clipPath3222)"
             id="g3220">
            <path
               d="m 915.156,1577.59 29.512,-18.32 c 10.613,-6.57 22.629,-9.87 34.641,-9.87 12.039,0 24.071,3.3 34.701,9.94 l 29.55,18.38 299.8,-185.68 -400.294,-249.26 c -19.316,-12 -31.023,-33.17 -30.949,-55.9 l 1.184,-408.56 -723.211,449.07 725.066,450.2 z m -786.211,488.2 661.758,-410.92 -661.758,-410.92 0,821.84 z M 1957.04,1656.18 c -0.08,23.81 -13.03,45.7 -33.87,57.23 -20.82,11.56 -46.25,10.9 -66.49,-1.68 l -388.98,-242.23 -299.8,185.64 759.74,473.11 c 19.28,11.99 30.98,33.09 30.96,55.8 -0.04,22.7 -11.8,43.77 -31.1,55.72 l -913.63,565.75 c -21.214,13.12 -48.018,13.1 -69.202,-0.04 L 31.0078,2238.13 C 11.7266,2226.18 0,2205.07 0,2182.37 0,2176.45 0,1133.28 0,1127.39 0,1104.65 11.7266,1083.6 31.0078,1071.6 L 944.668,504.262 c 0.437,-0.231 0.918,-0.43 1.367,-0.703 0.488,-0.278 0.93,-0.629 1.426,-0.938 1.055,-0.551 2.141,-0.98 3.203,-1.48 1.082,-0.551 2.141,-1.102 3.231,-1.532 1.703,-0.738 3.441,-1.328 5.187,-1.871 1.023,-0.347 2.039,-0.738 3.074,-1.019 1.965,-0.539 3.938,-0.899 5.942,-1.25 0.855,-0.117 1.707,-0.348 2.566,-0.469 2.859,-0.391 5.742,-0.621 8.621,-0.621 l 0.024,0 c 5.972,0 11.961,0.82 17.761,2.5 0.02,0 0.047,0 0.078,0 2.247,0.621 4.422,1.48 6.602,2.383 0.65,0.238 1.33,0.429 2,0.699 1.79,0.789 3.51,1.801 5.27,2.777 0.96,0.543 1.95,0.973 2.89,1.524 l 0.06,0.039 c 0.02,0.039 0.02,0.039 0.04,0.039 l 1.74,1.09 911.83,566.17 c 19.34,12.04 31.1,33.17 31.02,55.98 l -1.56,528.6"
               id="path3226"
               style="fill:#ffffff;fill-opacity:1;fill-rule:nonzero;stroke:none"
               inkscape:connector-curvature="0" />
            <path
               d="m 1043.52,1050.67 1.07,-372.818 782.6,485.978 -1.09,374.19 -782.58,-487.35"
               id="path3228"
               style="fill:#231f20;fill-opacity:1;fill-rule:nonzero;stroke:none"
               inkscape:connector-curvature="0" />
            <path
               d="M 190.098,2182.37 979.27,1692.35 1768.5,2183.8 979.363,2672.45 190.098,2182.37"
               id="path3230"
               style="fill:#f58113;fill-opacity:1;fill-rule:nonzero;stroke:none"
               inkscape:connector-curvature="0" />
            <path
               d="M 311.355,139.5 C 304.648,52.582 228.789,0 156.863,0 69.5508,0 0,70.75 0,151.371 c 0,75.859 62.832,151.328 156.465,151.328 77.461,0 126.847,-53.359 138.301,-83.008 l -33.985,0 c -16.582,28.868 -55.32,56.52 -103.918,56.52 -73.8864,0 -127.6247,-60.07 -127.6247,-125.27 0,-65.191 53.7383,-124.4488 128.8207,-124.4488 62.031,0 107.859,45.8164 118.132,86.5198 l -163.183,0 0,26.488 198.347,0"
               id="path3232"
               style="fill:#ffffff;fill-opacity:1;fill-rule:nonzero;stroke:none"
               inkscape:connector-curvature="0" />
            <path
               d="m 478.035,130 113.41,0 L 535.332,264.34 478.035,130 z m 40.695,167.539 32.801,0 125.657,-292.37884 -32.012,0 -42.278,98.35984 -135.918,0 -42.671,-98.35984 -30.43,0 L 518.73,297.539"
               id="path3234"
               style="fill:#ffffff;fill-opacity:1;fill-rule:nonzero;stroke:none"
               inkscape:connector-curvature="0" />
            <path
               d="m 776.438,31.6406 143.835,239.4184 -139.48,0 0,26.48 172.273,0 0,-26.48 -143.437,-239.4184 147.781,0 0,-26.48044 -180.972,0 0,26.48044"
               id="path3236"
               style="fill:#ffffff;fill-opacity:1;fill-rule:nonzero;stroke:none"
               inkscape:connector-curvature="0" />
            <path
               d="m 1067.31,297.539 160.04,0 0,-26.48 -130.78,0 0,-105.079 126.44,0 0,-26.48 -126.44,0 0,-107.8594 130.78,0 0,-26.48044 -160.04,0 0,292.37884"
               id="path3238"
               style="fill:#ffffff;fill-opacity:1;fill-rule:nonzero;stroke:none"
               inkscape:connector-curvature="0" />
            <path
               d="m 1381.51,31.6406 41.09,0 c 24.51,0 39.51,1.1797 55.3,7.5 18.18,7.461 30.84,27.6211 30.84,49.7696 0,22.5388 -15.02,41.9098 -34.36,49.4098 -13.87,5.512 -25.7,6.68 -56.91,6.68 l -35.96,0 0,-113.3594 z m 0,139.8904 36.74,0 c 22.93,0 35.95,1.168 50.19,8.278 13.83,7.113 23.71,23.671 23.71,41.089 0,13.442 -4.76,22.891 -12.26,31.993 -11.45,13.05 -29.26,18.168 -59.26,18.168 l -39.12,0 0,-99.528 z m -29.26,126.008 73.5,0 c 92.07,0 95.62,-65.969 95.62,-77.848 0,-34.371 -21.74,-50.55 -31.99,-58.871 29.22,-11.828 48.59,-38.32 48.59,-71.9098 0,-28.0508 -13.04,-53.75 -33.57,-67.5782 C 1479.5,6.71875 1460.12,4.76953 1425.75,5.16016 l -73.5,0 0,292.37884"
               id="path3240"
               style="fill:#ffffff;fill-opacity:1;fill-rule:nonzero;stroke:none"
               inkscape:connector-curvature="0" />
            <path
               d="m 1798.58,26.4922 c 67.56,0 125.64,54.918 125.64,124.4488 0,68.36 -56.48,125.27 -125.64,125.27 -66,0 -125.25,-53.75 -125.25,-126.441 0,-66.7583 57.26,-123.2778 125.25,-123.2778 z m 0,276.2068 c 82.17,0 154.86,-65.199 154.86,-151.328 C 1953.44,65.1992 1880.36,0 1798.58,0 c -82.99,0 -154.51,67.582 -154.51,149.77 0,92.07 76.66,152.929 154.51,152.929"
               id="path3242"
               style="fill:#ffffff;fill-opacity:1;fill-rule:nonzero;stroke:none"
               inkscape:connector-curvature="0" />
          </g>
        </g>
      </g>
    </g>
  </g>
</svg>
