<?xml version="1.0" encoding="UTF-8" standalone="no"?>
<!-- Created with Inkscape (http://www.inkscape.org/) -->

<svg
   xmlns:dc="http://purl.org/dc/elements/1.1/"
   xmlns:cc="http://creativecommons.org/ns#"
   xmlns:rdf="http://www.w3.org/1999/02/22-rdf-syntax-ns#"
   xmlns:svg="http://www.w3.org/2000/svg"
   xmlns="http://www.w3.org/2000/svg"
   xmlns:sodipodi="http://sodipodi.sourceforge.net/DTD/sodipodi-0.dtd"
   xmlns:inkscape="http://www.inkscape.org/namespaces/inkscape"
   version="1.1"
   width="979.84998"
   height="478.5"
   id="svg2"
   inkscape:version="0.48.2 r9819"
   sodipodi:docname="gazebo_horz_white_only.svg">
  <sodipodi:namedview
     pagecolor="#ffffff"
     bordercolor="#666666"
     borderopacity="1"
     objecttolerance="10"
     gridtolerance="10"
     guidetolerance="10"
     inkscape:pageopacity="0"
     inkscape:pageshadow="2"
     inkscape:window-width="1654"
     inkscape:window-height="1033"
     id="namedview21"
     showgrid="false"
     inkscape:zoom="0.7447059"
     inkscape:cx="675.12529"
     inkscape:cy="63.935242"
     inkscape:window-x="2402"
     inkscape:window-y="214"
     inkscape:window-maximized="0"
     inkscape:current-layer="svg2" />
  <defs
     id="defs4">
    <clipPath
       id="clipPath3020">
      <path
         d="m 0,0 5286.97,0 0,1276 L 0,1276 0,0 z"
         id="path3022"
         inkscape:connector-curvature="0" />
    </clipPath>
  </defs>
  <metadata
     id="metadata7">
    <rdf:RDF>
      <cc:Work
         rdf:about="">
        <dc:format>image/svg+xml</dc:format>
        <dc:type
           rdf:resource="http://purl.org/dc/dcmitype/StillImage" />
        <dc:title />
      </cc:Work>
    </rdf:RDF>
  </metadata>
  <g
     id="g3606"
     transform="translate(-170.94157,-79.7499)">
    <path
       inkscape:connector-curvature="0"
       id="path3024"
       d="m 397.71875,239.25 c -0.82445,4.6e-4 -1.64669,0.20502 -2.375,0.65625 l -62.78125,39 c -1.32519,0.82025 -2.125,2.28275 -2.125,3.84375 l 0,72.5 c 0,1.56062 0.79981,3.0195 2.125,3.84375 l 62.78125,38.96875 c 0.0308,0.019 0.0634,0.0449 0.0937,0.0625 0.0346,0.0186 0.058,0.0415 0.0937,0.0625 0.0708,0.0376 0.14463,0.0576 0.21875,0.0937 0.0732,0.0376 0.1415,0.0923 0.21875,0.125 0.11713,0.0474 0.25537,0.0889 0.375,0.125 0.0709,0.0249 0.1465,0.045 0.21875,0.0625 0.13425,0.041 0.2695,0.0678 0.40625,0.0937 0.0571,0.0117 0.0978,0.0279 0.15625,0.0312 0.19688,0.0303 0.39687,0.0312 0.59375,0.0312 0.40925,0 0.82238,-0.0464 1.21875,-0.15625 0.004,-0.004 0.0312,0 0.0312,0 0.15387,-0.041 0.28863,-0.12891 0.4375,-0.1875 0.0449,-0.0186 0.0811,-0.0137 0.125,-0.0312 0.126,-0.0552 0.25538,-0.12109 0.375,-0.1875 0.066,-0.0361 0.1225,-0.0874 0.1875,-0.125 l 0.0312,0 0.0937,-0.0625 62.6875,-38.90625 c 1.33125,-0.82763 2.1275,-2.30762 2.125,-3.875 l -0.0937,-36.3125 c -0.004,-1.63275 -0.91,-3.146 -2.34375,-3.9375 -1.43,-0.79437 -3.17375,-0.73925 -4.5625,0.125 l -26.75,16.65625 -20.59375,-12.78125 52.21875,-32.5 c 1.325,-0.82425 2.125,-2.28125 2.125,-3.84375 -0.004,-1.55763 -0.8,-2.99275 -2.125,-3.8125 l -62.8123,-38.9061 c -0.72875,-0.45188 -1.55055,-0.65671 -2.375,-0.65625 z m -58.4375,51.5 45.5,28.25 -45.5,28.25 0,-56.5 z m 62.875,33.53125 20.59375,12.78125 -27.5,17.125 c -1.32725,0.82362 -2.13138,2.27638 -2.125,3.84375 L 393.1875,386.125 343.5,355.25 l 49.8125,-30.9375 2.03125,1.25 c 0.72812,0.45075 1.54738,0.6875 2.375,0.6875 0.82575,0 1.67625,-0.23338 2.40625,-0.6875 l 2.03125,-1.28125 z m 53.78125,2.75 L 456,352.75 l -53.78125,33.40625 -0.0937,-25.625 53.8125,-33.5 z"
       style="fill:#ffffff;fill-opacity:1;fill-rule:nonzero;stroke:none" />
    <path
       d="m 343.48836,282.74313 54.23975,33.67974 54.23925,-33.77937 -54.23438,-33.58475 -54.24462,33.68438"
       id="path3028"
       style="fill:#ffffff;fill-opacity:1;fill-rule:nonzero;stroke:none"
       inkscape:connector-curvature="0" />
    <path
       d="m 579.12561,321.97075 c -1.685,21.81875 -20.725,35.00975 -38.77875,35.00975 -21.9175,0 -39.375,-17.75 -39.375,-37.98738 0,-19.039 15.77125,-37.98537 39.27625,-37.98537 19.43875,0 31.835,13.39112 34.71375,20.82862 l -8.52875,0 c -4.165,-7.23975 -13.8875,-14.183 -26.08625,-14.183 -18.545,0 -32.035,15.07663 -32.035,31.44288 0,16.36175 13.49,31.24112 32.335,31.24112 15.56875,0 27.075,-11.50637 29.6525,-21.72362 l -40.96,0 0,-6.643 49.78625,0"
       id="path3030"
       style="fill:#ffffff;fill-opacity:1;fill-rule:nonzero;stroke:none"
       inkscape:connector-curvature="0" />
    <path
       d="m 620.96186,324.35112 28.465,0 -14.08375,-33.72075 -14.38125,33.72075 z m 10.215,-42.05175 8.2325,0 31.53625,73.392 -8.035,0 -10.605,-24.69337 -34.12,0 -10.71125,24.69337 -7.63875,0 31.34125,-73.392"
       id="path3032"
       style="fill:#ffffff;fill-opacity:1;fill-rule:nonzero;stroke:none"
       inkscape:connector-curvature="0" />
    <path
       d="m 695.86311,349.04487 36.1,-60.103 -35.00875,0 0,-6.6425 43.2375,0 0,6.6425 -36.00125,60.103 37.09375,0 0,6.6465 -45.42125,0 0,-6.6465"
       id="path3034"
       style="fill:#ffffff;fill-opacity:1;fill-rule:nonzero;stroke:none"
       inkscape:connector-curvature="0" />
    <path
       d="m 768.87061,282.29937 40.17,0 0,6.6425 -32.8275,0 0,26.38575 31.73625,0 0,6.64313 -31.73625,0 0,27.07412 32.8275,0 0,6.6465 -40.17,0 0,-73.392"
       id="path3036"
       style="fill:#ffffff;fill-opacity:1;fill-rule:nonzero;stroke:none"
       inkscape:connector-curvature="0" />
    <path
       d="m 847.73436,349.04487 10.3125,0 c 6.1525,0 9.92125,-0.29687 13.8825,-1.88225 4.5625,-1.88287 7.73875,-6.94 7.73875,-12.49562 0,-5.65388 -3.76875,-10.51363 -8.625,-12.39938 -3.475,-1.38825 -6.44875,-1.68512 -14.28625,-1.68512 l -9.0225,0 0,28.46238 z m 0,-35.10887 9.21875,0 c 5.75875,0 9.02875,-0.29688 12.60375,-2.08 3.4675,-1.78713 5.94625,-5.94725 5.94625,-10.3165 0,-3.371 -1.195,-5.7495 -3.0725,-8.03463 -2.87375,-3.27 -7.3425,-4.563 -14.87875,-4.563 l -9.8175,0 0,24.99413 z m -7.3425,-31.63662 18.445,0 c 23.10875,0 24.0025,16.55949 24.0025,19.53699 0,8.63138 -5.45375,12.69288 -8.025,14.77638 7.32875,2.97362 12.1925,9.62063 12.1925,18.05425 0,7.0425 -3.27125,13.48775 -8.43125,16.9595 -6.25,3.6655 -11.1125,4.1635 -19.73875,4.06487 l -18.445,0 0,-73.392"
       id="path3038"
       style="fill:#ffffff;fill-opacity:1;fill-rule:nonzero;stroke:none"
       inkscape:connector-curvature="0" />
    <path
       d="m 952.41936,350.33737 c 16.95875,0 31.5375,-13.78762 31.5375,-31.24112 0,-17.16075 -14.18,-31.44288 -31.5375,-31.44288 -16.565,0 -31.44625,13.49063 -31.44625,31.73925 0,16.75775 14.38375,30.94475 31.44625,30.94475 z m 0,-69.32962 c 20.625,0 38.87625,16.36475 38.87625,37.98538 0,21.62112 -18.34625,37.98737 -38.87625,37.98737 -20.83,0 -38.7825,-16.96288 -38.7825,-37.58788 0,-23.11187 19.23875,-38.38487 38.7825,-38.38487"
       id="path3040"
       style="fill:#ffffff;fill-opacity:1;fill-rule:nonzero;stroke:none"
       inkscape:connector-curvature="0" />
  </g>
</svg>
