<?xml version="1.0" encoding="UTF-8" standalone="no"?>
<!-- Created with Inkscape (http://www.inkscape.org/) -->

<svg
   xmlns:dc="http://purl.org/dc/elements/1.1/"
   xmlns:cc="http://creativecommons.org/ns#"
   xmlns:rdf="http://www.w3.org/1999/02/22-rdf-syntax-ns#"
   xmlns:svg="http://www.w3.org/2000/svg"
   xmlns="http://www.w3.org/2000/svg"
   xmlns:sodipodi="http://sodipodi.sourceforge.net/DTD/sodipodi-0.dtd"
   xmlns:inkscape="http://www.inkscape.org/namespaces/inkscape"
   version="1.1"
   width="596.75"
   height="703.81"
   id="svg2"
   inkscape:version="0.48.2 r9819"
   sodipodi:docname="gazebo_vert_black_only.svg">
  <sodipodi:namedview
     pagecolor="#606060"
     bordercolor="#666666"
     borderopacity="1"
     objecttolerance="10"
     gridtolerance="10"
     guidetolerance="10"
     inkscape:pageopacity="0"
     inkscape:pageshadow="2"
     inkscape:window-width="1129"
     inkscape:window-height="887"
     id="namedview3206"
     showgrid="false"
     inkscape:zoom="0.67069272"
     inkscape:cx="267.77325"
     inkscape:cy="317.03244"
     inkscape:window-x="2562"
     inkscape:window-y="123"
     inkscape:window-maximized="0"
     inkscape:current-layer="svg2" />
  <defs
     id="defs4">
    <clipPath
       id="clipPath3020">
      <path
         d="m 0,0 5286.97,0 0,1276 L 0,1276 0,0 z"
         id="path3022"
         inkscape:connector-curvature="0" />
    </clipPath>
    <clipPath
       id="clipPath3111">
      <path
         d="m 0,0 5286.98,0 0,1276 L 0,1276 0,0 z"
         id="path3113"
         inkscape:connector-curvature="0" />
    </clipPath>
    <clipPath
       id="clipPath3222">
      <path
         d="m 0,0 1958.6,0 0,2815 L 0,2815 0,0 z"
         id="path3224"
         inkscape:connector-curvature="0" />
    </clipPath>
  </defs>
  <metadata
     id="metadata7">
    <rdf:RDF>
      <cc:Work
         rdf:about="">
        <dc:format>image/svg+xml</dc:format>
        <dc:type
           rdf:resource="http://purl.org/dc/dcmitype/StillImage" />
        <dc:title></dc:title>
      </cc:Work>
    </rdf:RDF>
  </metadata>
  <g
     id="g3302"
     transform="translate(-126.45313,0.04562461)">
    <path
       id="path3226"
       d="m 424.8125,175.90625 c -1.50009,9.4e-4 -2.9885,0.3975 -4.3125,1.21875 l -114.21875,70.90625 c -2.41015,1.49375 -3.875,4.1625 -3.875,7 l 0,131.84375 c 0,2.8425 1.46485,5.5 3.875,7 L 420.5,464.78125 c 0.0546,0.0289 0.10013,0.0596 0.15625,0.0937 0.061,0.0348 0.1255,0.0863 0.1875,0.125 0.13187,0.0689 0.2735,0.0937 0.40625,0.15625 0.13525,0.0689 0.27,0.165 0.40625,0.21875 0.21288,0.0922 0.438,0.15087 0.65625,0.21875 0.12787,0.0434 0.24562,0.0898 0.375,0.125 0.24562,0.0674 0.4995,0.11238 0.75,0.15625 0.10687,0.0146 0.20512,0.0474 0.3125,0.0625 0.35738,0.0489 0.70263,0.0625 1.0625,0.0625 0.74649,0 1.49375,-0.1025 2.21875,-0.3125 l 0.0312,0 c 0.28087,-0.0776 0.54,-0.16838 0.8125,-0.28125 0.0813,-0.0297 0.16625,-0.06 0.25,-0.0937 0.22375,-0.0986 0.43625,-0.22175 0.65625,-0.34375 0.12,-0.0679 0.2575,-0.11863 0.375,-0.1875 l 0.21875,-0.15625 114,-70.75 c 2.4175,-1.505 3.885,-4.14875 3.875,-7 l -0.21875,-66.09375 c -0.01,-2.97625 -1.61375,-5.715 -4.21875,-7.15625 -2.6025,-1.445 -5.7825,-1.35375 -8.3125,0.21875 l -48.625,30.28125 -37.46875,-23.21875 94.96875,-59.125 c 2.41,-1.49875 3.8775,-4.13 3.875,-6.96875 -0.005,-2.8375 -1.49375,-5.475 -3.90625,-6.96875 L 429.15625,177.125 c -1.32587,-0.82 -2.84366,-1.21969 -4.34375,-1.21875 z m -106.28125,93.6875 82.71875,51.375 -82.71875,51.34375 0,-102.71875 z m 114.3125,61 37.5,23.21875 -50.0625,31.15625 c -2.4145,1.5 -3.85301,4.1275 -3.84375,6.96875 l 0.125,51.09375 -90.375,-56.15625 90.625,-56.25 3.6875,2.28125 c 1.32662,0.82125 2.811,1.21875 4.3125,1.21875 1.50488,0 3.015,-0.38875 4.34375,-1.21875 l 3.6875,-2.3125 z m 97.84375,4.96875 0.125,46.78125 -97.8125,60.75 -0.15625,-46.625 97.84375,-60.90625 z"
       style="fill:#000000;fill-opacity:1;fill-rule:nonzero;stroke:none"
       inkscape:connector-curvature="0" />
    <path
       d="m 326.17476,255.01625 98.6465,61.2525 98.65375,-61.43125 -98.64212,-61.08125 -98.65813,61.26"
       id="path3230"
       style="fill:#000000;fill-opacity:1;fill-rule:nonzero;stroke:none"
       inkscape:connector-curvature="0" />
    <path
       d="m 341.33188,510.375 c -0.83837,10.86475 -10.32075,17.4375 -19.3115,17.4375 -10.91402,0 -19.60787,-8.84375 -19.60787,-18.92138 0,-9.48237 7.854,-18.916 19.55813,-18.916 9.68262,0 15.85587,6.66988 17.28762,10.37601 l -4.24813,0 c -2.07275,-3.60851 -6.915,-7.06501 -12.98975,-7.06501 -9.2358,0 -15.95308,7.50875 -15.95308,15.65876 0,8.14887 6.71728,15.5561 16.10258,15.5561 7.75388,0 13.48238,-5.72706 14.7665,-10.81498 l -20.39787,0 0,-3.311 24.79337,0"
       id="path3232"
       style="fill:#000000;fill-opacity:1;fill-rule:nonzero;stroke:none"
       inkscape:connector-curvature="0" />
    <path
       d="m 362.16688,511.5625 14.17626,0 -7.01413,-16.7925 -7.16213,16.7925 z m 5.08688,-20.94237 4.10012,0 15.70713,36.54735 -4.0015,0 -5.28475,-12.29498 -16.98975,0 -5.33387,12.29498 -3.80376,0 15.60638,-36.54735"
       id="path3234"
       style="fill:#000000;fill-opacity:1;fill-rule:nonzero;stroke:none"
       inkscape:connector-curvature="0" />
    <path
       d="m 399.46726,523.85743 17.97938,-29.92731 -17.43501,0 0,-3.30999 21.53413,0 0,3.30999 -17.92963,29.92731 18.47263,0 0,3.31005 -22.6215,0 0,-3.31005"
       id="path3236"
       style="fill:#000000;fill-opacity:1;fill-rule:nonzero;stroke:none"
       inkscape:connector-curvature="0" />
    <path
       d="m 435.82626,490.62013 20.005,0 0,3.30999 -16.3475,0 0,13.13488 15.805,0 0,3.31 -15.805,0 0,13.48243 16.3475,0 0,3.31005 -20.005,0 0,-36.54735"
       id="path3238"
       style="fill:#000000;fill-opacity:1;fill-rule:nonzero;stroke:none"
       inkscape:connector-curvature="0" />
    <path
       d="m 475.10126,523.85743 5.13625,0 c 3.06375,0 4.93875,-0.14747 6.9125,-0.9375 2.2725,-0.93263 3.855,-3.45264 3.855,-6.22121 0,-2.81734 -1.8775,-5.23872 -4.295,-6.17622 -1.73375,-0.689 -3.2125,-0.835 -7.11375,-0.835 l -4.495,0 0,14.16993 z m 0,-17.48631 4.5925,0 c 2.86625,0 4.49375,-0.146 6.27375,-1.03475 1.72875,-0.88912 2.96375,-2.95887 2.96375,-5.13612 0,-1.68025 -0.595,-2.86137 -1.5325,-3.99913 -1.43125,-1.63124 -3.6575,-2.271 -7.4075,-2.271 l -4.89,0 0,12.441 z m -3.6575,-15.75099 9.1875,0 c 11.50875,0 11.9525,8.24612 11.9525,9.731 0,4.29637 -2.7175,6.31874 -3.99875,7.35887 3.6525,1.4785 6.07375,4.79 6.07375,8.98872 0,3.50635 -1.63,6.71875 -4.19625,8.44728 -3.1125,1.82666 -5.535,2.07031 -9.83125,2.02148 l -9.1875,0 0,-36.54736"
       id="path3240"
       style="fill:#000000;fill-opacity:1;fill-rule:nonzero;stroke:none"
       inkscape:connector-curvature="0" />
    <path
       d="m 527.23501,524.50098 c 8.445,0 15.705,-6.86476 15.705,-15.5561 0,-8.54501 -7.06,-15.65876 -15.705,-15.65876 -8.25,0 -15.65625,6.71875 -15.65625,15.80513 0,8.34479 7.1575,15.40973 15.65625,15.40973 z m 0,-34.52586 c 10.27125,0 19.3575,8.14988 19.3575,18.916 0,10.77148 -9.135,18.92138 -19.3575,18.92138 -10.37375,0 -19.31375,-8.44775 -19.31375,-18.72125 0,-11.50875 9.5825,-19.11613 19.31375,-19.11613"
       id="path3242"
       style="fill:#000000;fill-opacity:1;fill-rule:nonzero;stroke:none"
       inkscape:connector-curvature="0" />
  </g>
</svg>
